<?xml version="1.0" encoding="UTF-8"?>
<svg id="Layer_1" data-name="Layer 1" xmlns="http://www.w3.org/2000/svg" xmlns:xlink="http://www.w3.org/1999/xlink" viewBox="0 0 24 24">
  <defs>
    <style>
      .cls-1 {
        clip-path: url(#clippath);
      }

      .cls-2 {
        fill: #e72424;
        opacity: .85;
      }

      .cls-2, .cls-3, .cls-4 {
        stroke-width: 0px;
      }

      .cls-3 {
        clip-rule: evenodd;
        fill: none;
      }

      .cls-4 {
        fill: #fff;
      }
    </style>
    <clipPath id="clippath">
      <path class="cls-3" d="M19.64,10.03v.67s-.02.06-.03.1c-.04.43-.16.84-.32,1.23-.38.95-.96,1.76-1.64,2.52-1.54,1.71-3.37,3.06-5.34,4.25-.18.11-.36.1-.53-.01-.82-.55-1.66-1.07-2.46-1.65-1.26-.92-2.42-1.96-3.38-3.18-.55-.7-1.01-1.45-1.26-2.31-.08-.29-.13-.58-.19-.88v-.7s.02-.08.03-.13c.09-.89.41-1.7.98-2.4.71-.88,1.63-1.41,2.78-1.5,1.38-.11,2.5.42,3.38,1.44.14.17.27.35.41.54.1-.14.19-.27.28-.4.1-.13.21-.26.33-.37,1.17-1.14,2.55-1.53,4.13-1,1.39.48,2.24,1.5,2.65,2.87.09.3.12.61.18.92h0Z"/>
    </clipPath>
  </defs>
  <circle class="cls-2" cx="12" cy="12" r="12"/>
  <g class="cls-1">
    <path class="cls-4" d="M19.64,11.28h0v-2.5h0v2.5ZM18.26,9.47c.07.22.06.34.15.8l2.46-.47c-.03-.16-.1-.67-.21-1.05l-2.39.72ZM16.41,7.42c.95.32,1.54,1,1.85,2.05l2.39-.72c-.51-1.69-1.6-3.07-3.44-3.7l-.81,2.37ZM13.56,8.13c.46-.45.91-.7,1.35-.81.43-.11.92-.1,1.5.1l.81-2.37c-.99-.34-1.98-.4-2.92-.16-.94.24-1.77.75-2.48,1.44l1.74,1.79ZM13.34,8.39c.1-.13.16-.2.21-.25l-1.74-1.8c-.19.18-.34.37-.44.5l1.96,1.55ZM13.09,8.73c.14-.19.17-.25.25-.35l-1.96-1.55c-.12.15-.26.36-.32.44l2.03,1.45ZM10.72,8.29c.11.13.15.21.36.47l1.99-1.51c-.08-.1-.28-.39-.46-.6l-1.89,1.64ZM8.38,7.28c.94-.07,1.69.26,2.34,1.01l1.89-1.64c-1.12-1.29-2.61-2.01-4.43-1.87l.19,2.49ZM6.48,8.32c.53-.64,1.14-.99,1.91-1.05l-.19-2.49c-1.53.12-2.75.85-3.65,1.96l1.94,1.58ZM5.77,10.07c.07-.67.3-1.24.71-1.74l-1.94-1.58c-.74.9-1.14,1.95-1.26,3.06l2.49.26ZM5.72,10.33s0,0,0,0c0,0,0-.02.01-.04,0-.04.03-.12.04-.21l-2.49-.26s0-.05,0-.06c0,0,0-.01,0-.02,0,0,0,0,0,0,0,0,0,0,0,0,0,0,0,0,0,0,0,0,0,0,0,0,0,0,0,0,0,0,0,0,0,0,0,0,0,0,0,.02,0,.03,0,.01,0,.02,0,.04l2.44.53ZM5.75,10.76h0v-.02h0v-.02h0v-.02h0v-.02h0v-.02h0v-.02h0v-.02h0v-.02h0v-.02h0v-.02h0v-.02h0v-.02h0v-.02h0v-.02h0v-.02h0v-.02h0v-.02h0v-.02h0v-.02h0v-.02h0v-.02h0v-.02h0v-.02h0v-.02h0v-.02h0v-.02h0v-.02h0v-.02h0v-.02h0v-.02h0v-.02h0v-.02h0v-.02h0v-.02h0v-.02h0v-.02h0v-.02h0v-.02h0v-.02h0v-.02h0v-.02h0v-.02h0s-2.5-.01-2.5-.01h0v.02h0v.02h0v.02h0v.02h0v.02h0v.02h0v.02h0v.02h0v.02h0v.02h0v.02h0v.02h0v.02h0v.02h0v.02h0v.02h0v.02h0v.02h0v.02h0v.02h0v.02h0v.02h0v.02h0v.02h0v.02h0v.02h0v.02h0v.02h0v.02h0v.02h0v.02h0v.02h0v.02h0v.02h0v.02h0v.02h0v.02h0v.02h0v.02h0v.02h0v.02h0v.02h0s2.5.01,2.5.01ZM5.89,11.28c-.07-.23-.08-.38-.17-.78l-2.44.52c.04.18.11.62.21.97l2.4-.71ZM6.94,13.18c-.49-.63-.86-1.24-1.05-1.89l-2.4.71c.31,1.06.87,1.96,1.48,2.73l1.97-1.54ZM10.07,16.12c-1.2-.87-2.26-1.83-3.13-2.95l-1.97,1.54c1.05,1.34,2.3,2.46,3.63,3.42l1.47-2.02ZM12.49,17.75c-.87-.58-1.65-1.06-2.42-1.62l-1.47,2.02c.82.6,1.73,1.16,2.5,1.68l1.39-2.08ZM11.68,17.73c.09-.05.23-.11.42-.1.18,0,.32.07.39.12l-1.39,2.08c.24.16.55.29.91.3.36.01.69-.09.95-.26l-1.29-2.14ZM16.74,13.71c-1.43,1.59-3.15,2.87-5.06,4.02l1.29,2.14c2.03-1.23,3.97-2.65,5.62-4.48l-1.86-1.67ZM18.14,11.57c-.3.76-.79,1.46-1.41,2.14l1.86,1.67c.74-.82,1.42-1.76,1.87-2.89l-2.32-.93ZM18.38,10.67c-.03.29-.11.59-.23.9l2.32.92c.19-.48.34-1,.4-1.57l-2.49-.26ZM18.44,10.38s0-.03,0-.02c0,0,0,0,0,.01,0,0,0,.02,0,.03-.01.04-.04.14-.06.27l2.49.27c0,.05-.01.09-.02.12,0,.03-.01.05-.01.05,0,0,0,0,0,0,0,0,0,0,0,0,0,0,0,0,0,0,0-.01.01-.04.02-.07l-2.42-.64ZM18.39,10.03v.67h2.5v-.67h-2.5ZM19.64,10.03l-1.23.24.19,1.01h1.03v-1.25ZM19.46,9.11l-1.2.36h0s1.2-.36,1.2-.36ZM16.81,6.24l.4-1.18h0s-.4,1.18-.4,1.18ZM12.69,7.24l.87.9h0s-.87-.9-.87-.9ZM12.36,7.61l-.98-.78h0s.98.78.98.78ZM12.08,8.01l-1,.75,1.03,1.36.99-1.38-1.02-.73ZM11.67,7.47l.94-.82h0s-.94.82-.94.82ZM8.28,6.03l.1,1.25h0l-.1-1.25ZM5.51,7.53l-.97-.79h0s.97.79.97.79ZM4.53,9.94l1.24.13h0s-1.24-.13-1.24-.13ZM4.5,10.06l-1.22-.26-.03.13v.13h1.25ZM4.5,10.76h-1.25v.13l.03.13,1.22-.26ZM4.69,11.64l-1.2.35h0s1.2-.35,1.2-.35ZM5.95,13.95l.98-.77h0s-.98.77-.98.77ZM9.34,17.13l.74-1.01h0s-.74,1.01-.74,1.01ZM11.8,18.79l-.69,1.04h0s.69-1.04.69-1.04ZM12.32,18.8l-.65-1.07h0s.65,1.07.65,1.07ZM17.67,14.55l.93.84h0s-.93-.84-.93-.84ZM19.3,12.03l1.16.46h0s-1.16-.46-1.16-.46ZM19.62,10.8l-1.24-.13h0s1.24.13,1.24.13ZM19.64,10.7l1.21.32.04-.16v-.16h-1.25ZM19.64,10.03h1.25v-1.25h-1.25v1.25Z"/>
  </g>
</svg>