<?xml version="1.0" encoding="UTF-8"?>
<svg id="Layer_1" data-name="Layer 1" xmlns="http://www.w3.org/2000/svg" xmlns:xlink="http://www.w3.org/1999/xlink" viewBox="0 0 20.35 17.59">
  <defs>
    <style>
      .cls-1 {
        clip-path: url(#clippath);
      }

      .cls-2 {
        fill: none;
      }

      .cls-2, .cls-3 {
        stroke-width: 0px;
      }

      .cls-3 {
        fill: #000;
      }
    </style>
    <clipPath id="clippath">
      <rect class="cls-2" width="20.35" height="17.59"/>
    </clipPath>
  </defs>
  <g class="cls-1">
    <path class="cls-3" d="M5.67,2.4h13.48V0H5.67v2.4ZM19.15,2.4c.66,0,1.2-.54,1.2-1.2S19.81,0,19.15,0v2.4ZM5.67,0C5,0,4.47.54,4.47,1.2s.54,1.2,1.2,1.2V0Z"/>
    <path class="cls-3" d="M1.33,0h-.13v2.4h.13V0ZM1.2,0C.54,0,0,.54,0,1.2s.54,1.2,1.2,1.2V0ZM1.33,2.4c.66,0,1.2-.54,1.2-1.2S1.99,0,1.33,0v2.4Z"/>
    <path class="cls-3" d="M5.67,9.99h13.48v-2.4H5.67v2.4ZM19.15,9.99c.66,0,1.2-.54,1.2-1.2s-.54-1.2-1.2-1.2v2.4ZM5.67,7.59c-.66,0-1.2.54-1.2,1.2s.54,1.2,1.2,1.2v-2.4Z"/>
    <path class="cls-3" d="M1.33,7.59h-.13v2.4h.13v-2.4ZM1.2,7.59C.54,7.59,0,8.13,0,8.79s.54,1.2,1.2,1.2v-2.4ZM1.33,9.99c.66,0,1.2-.54,1.2-1.2s-.54-1.2-1.2-1.2v2.4Z"/>
    <path class="cls-3" d="M5.67,17.59h13.48v-2.4H5.67v2.4ZM19.15,17.59c.66,0,1.2-.54,1.2-1.2s-.54-1.2-1.2-1.2v2.4ZM5.67,15.19c-.66,0-1.2.54-1.2,1.2s.54,1.2,1.2,1.2v-2.4Z"/>
    <path class="cls-3" d="M1.33,15.19h-.13v2.4h.13v-2.4ZM1.2,15.19C.54,15.19,0,15.73,0,16.39s.54,1.2,1.2,1.2v-2.4ZM1.33,17.59c.66,0,1.2-.54,1.2-1.2s-.54-1.2-1.2-1.2v2.4Z"/>
  </g>
</svg>