<?xml version="1.0" encoding="UTF-8"?>
<svg id="Layer_1" data-name="Layer 1" xmlns="http://www.w3.org/2000/svg" xmlns:xlink="http://www.w3.org/1999/xlink" viewBox="0 0 28.72 26">
  <defs>
    <style>
      .cls-1 {
        clip-path: url(#clippath);
      }

      .cls-2 {
        fill: none;
      }

      .cls-2, .cls-3 {
        stroke-width: 0px;
      }

      .cls-4 {
        clip-path: url(#clippath-1);
      }

      .cls-3 {
        fill: #fff;
      }
    </style>
    <clipPath id="clippath">
      <circle class="cls-2" cx="19.25" cy="5.78" r="5.78"/>
    </clipPath>
    <clipPath id="clippath-1">
      <circle class="cls-2" cx="9.25" cy="20.22" r="5.78"/>
    </clipPath>
  </defs>
  <g>
    <path class="cls-3" d="M27.47,4.53h-2.58c.09.4.14.82.14,1.25s-.05.85-.14,1.25h2.58c.69,0,1.25-.56,1.25-1.25s-.56-1.25-1.25-1.25Z"/>
    <path class="cls-3" d="M13.47,5.78c0-.43.05-.85.14-1.25H1.47c-.69,0-1.25.56-1.25,1.25s.56,1.25,1.25,1.25h12.14c-.09-.4-.14-.82-.14-1.25Z"/>
  </g>
  <g class="cls-1">
    <path class="cls-3" d="M19.25,2.5c1.81,0,3.28,1.47,3.28,3.28h5c0-4.57-3.71-8.28-8.28-8.28V2.5ZM15.97,5.78c0-1.81,1.47-3.28,3.28-3.28V-2.5c-4.57,0-8.28,3.71-8.28,8.28h5ZM19.25,9.06c-1.81,0-3.28-1.47-3.28-3.28h-5c0,4.57,3.71,8.28,8.28,8.28v-5ZM22.53,5.78c0,1.81-1.47,3.28-3.28,3.28v5c4.57,0,8.28-3.71,8.28-8.28h-5Z"/>
  </g>
  <g>
    <path class="cls-3" d="M27.25,18.97h-12.36c.09.4.14.82.14,1.25s-.05.85-.14,1.25h12.36c.69,0,1.25-.56,1.25-1.25s-.56-1.25-1.25-1.25Z"/>
    <path class="cls-3" d="M3.47,20.22c0-.43.05-.85.14-1.25H1.25c-.69,0-1.25.56-1.25,1.25s.56,1.25,1.25,1.25h2.36c-.09-.4-.14-.82-.14-1.25Z"/>
  </g>
  <g class="cls-4">
    <path class="cls-3" d="M9.25,23.5c-1.81,0-3.28-1.47-3.28-3.28H.97c0,4.57,3.71,8.28,8.28,8.28v-5ZM12.53,20.22c0,1.81-1.47,3.28-3.28,3.28v5c4.57,0,8.28-3.71,8.28-8.28h-5ZM9.25,16.94c1.81,0,3.28,1.47,3.28,3.28h5c0-4.57-3.71-8.28-8.28-8.28v5ZM5.97,20.22c0-1.81,1.47-3.28,3.28-3.28v-5C4.68,11.94.97,15.65.97,20.22h5Z"/>
  </g>
</svg>