<?xml version="1.0" encoding="UTF-8"?>
<svg id="Layer_1" data-name="Layer 1" xmlns="http://www.w3.org/2000/svg" xmlns:xlink="http://www.w3.org/1999/xlink" viewBox="0 0 24.08 26.08">
  <defs>
    <style>
      .cls-1 {
        clip-path: url(#clippath);
      }

      .cls-2 {
        clip-rule: evenodd;
      }

      .cls-2, .cls-3 {
        stroke-width: 0px;
      }

      .cls-2, .cls-3, .cls-4 {
        fill: #fff;
      }

      .cls-4 {
        fill-rule: evenodd;
      }
    </style>
    <clipPath id="clippath">
      <path class="cls-2" d="M2.44,0h19.31c1.01,0,1.41-.1,1.91.4s.4,1,.4,2.04v21.38c0,.31.02.61-.01.92-.03.23-.09.47-.2.69-.28.52-.94.77-1.6.6-.34-.09-.68-.26-.96-.45-2.7-1.86-5.38-3.74-8.07-5.6-.72-.5-1.54-.5-2.26,0-2,1.39-4,2.78-6,4.17-.77.53-1.52,1.08-2.31,1.59-1.13.72-2.37.33-2.62-.79-.03-.12-.03-.24-.03-.35,0-7.43,0-14.86,0-22.3C0,1.21-.09.91.41.41.91-.09,1.41,0,2.44,0Z"/>
    </clipPath>
  </defs>
  <path class="cls-4" d="M2.44,0h19.31c1.01,0,1.41-.1,1.91.4s.4,1,.4,2.04v21.38c0,.31.02.61-.01.92-.03.23-.09.47-.2.69-.28.52-.94.77-1.6.6-.34-.09-.68-.26-.96-.45-2.7-1.86-5.38-3.74-8.07-5.6-.72-.5-1.54-.5-2.26,0-2,1.39-4,2.78-6,4.17-.77.53-1.52,1.08-2.31,1.59-1.13.72-2.37.33-2.62-.79-.03-.12-.03-.24-.03-.35,0-7.43,0-14.86,0-22.3C0,1.21-.09.91.41.41.91-.09,1.41,0,2.44,0Z"/>
  <g class="cls-1">
    <path class="cls-3" d="M2.18,2.18c-.06.06-.18.15-.34.23-.16.07-.29.09-.31.09,0,0,0,0,.04,0,.04,0,.1,0,.18,0,.09,0,.18,0,.3,0,.12,0,.25,0,.4,0V-2.49c-.27,0-.37,0-.66,0-.22,0-.52,0-.85.04-.79.09-1.59.4-2.29,1.1l3.54,3.54ZM2.51,2.27c0-.15,0-.29,0-.4,0-.12,0-.21,0-.29,0-.08,0-.12,0-.14,0-.02,0,0,0,.03,0,.04-.02.11-.04.2-.03.09-.06.18-.11.26-.09.17-.18.25-.17.24L-1.36-1.36c-.24.24-.5.55-.72.95-.22.42-.33.83-.38,1.19-.05.33-.05.64-.04.84,0,.27,0,.37,0,.65H2.51ZM2.51,24.57c0-7.43,0-14.86,0-22.3H-2.49c0,7.43,0,14.86,0,22.3H2.51ZM2.48,24.39c.02.1.03.18.03.2,0,.02,0,.03,0-.02H-2.49c0,.11,0,.48.09.89l4.88-1.07ZM1.32,23.61c-.05.03.1-.09.43.01.16.05.34.15.48.31.15.16.22.33.25.46l-4.88,1.08c.32,1.44,1.34,2.53,2.69,2.94,1.29.39,2.63.11,3.71-.57l-2.68-4.22ZM3.55,22.08c-.84.58-1.49,1.06-2.23,1.53l2.68,4.22c.85-.54,1.7-1.16,2.4-1.64l-2.85-4.11ZM9.56,17.91c-2,1.38-4.01,2.79-6.01,4.17l2.85,4.11c2.01-1.4,3.99-2.77,6-4.17l-2.85-4.11ZM14.66,17.92c-1.57-1.09-3.53-1.1-5.11,0l2.85,4.11s-.13.07-.3.07c-.18,0-.28-.06-.29-.07l2.85-4.11ZM22.72,23.52c-2.69-1.86-5.36-3.73-8.06-5.6l-2.85,4.11c2.68,1.86,5.37,3.74,8.07,5.61l2.84-4.11ZM22.92,23.61s-.05-.02-.09-.04c-.04-.02-.08-.04-.1-.06l-2.84,4.12c.49.34,1.09.63,1.72.8l1.31-4.82ZM21.66,24.24c.36-.66.98-.7,1.26-.63l-1.31,4.83c1.59.43,3.53-.12,4.45-1.82l-4.4-2.38ZM21.57,24.46s0,0,0-.04c0-.03.03-.1.08-.18l4.39,2.39c.32-.58.44-1.16.49-1.6l-4.97-.56ZM21.57,23.83c0,.1,0,.2,0,.28,0,.08,0,.14,0,.2,0,.11,0,.15,0,.16l4.97.55c.05-.49.03-1.13.03-1.19h-5ZM21.57,2.45v21.38h5V2.45h-5ZM21.9,2.18c-.06-.06-.15-.18-.23-.34-.07-.16-.09-.29-.09-.31,0,0,0,0,0,.04,0,.04,0,.1,0,.18,0,.09,0,.18,0,.3,0,.12,0,.25,0,.4h5c0-.27,0-.38,0-.67,0-.22,0-.53-.04-.85-.09-.79-.4-1.59-1.1-2.29l-3.54,3.54ZM21.76,2.51c.15,0,.28,0,.39,0,.12,0,.2,0,.28,0,.08,0,.12,0,.15,0,.03,0,.02,0,0,0-.03,0-.08-.01-.15-.03-.07-.02-.15-.05-.24-.09-.17-.08-.27-.18-.29-.2l3.54-3.54c-.27-.27-.61-.54-1.03-.75-.42-.21-.83-.31-1.18-.35-.33-.04-.63-.04-.84-.04-.28,0-.37,0-.64,0V2.51ZM2.44,2.51h19.31V-2.49H2.44V2.51ZM.01,24.57h2.5,0S.01,24.57.01,24.57ZM.04,24.92l-2.44.53h0S.04,24.92.04,24.92ZM2.66,25.72l-1.34-2.11h0s1.34,2.11,1.34,2.11ZM4.97,24.13l-1.42-2.05h0s1.43,2.05,1.43,2.05ZM10.98,19.96l1.42,2.05h0s-1.42-2.05-1.42-2.05ZM13.24,19.97l1.43-2.05h0s-1.43,2.05-1.43,2.05ZM21.3,25.57l-1.42,2.06h0s1.42-2.06,1.42-2.06ZM22.26,26.02l-.66,2.41h0s.66-2.41.66-2.41ZM23.86,25.43l-2.2-1.19h0s2.2,1.19,2.2,1.19ZM24.06,24.74l2.48.28h0s-2.48-.28-2.48-.28Z"/>
  </g>
</svg>