<?xml version="1.0" encoding="UTF-8"?>
<svg id="Layer_1" data-name="Layer 1" xmlns="http://www.w3.org/2000/svg" xmlns:xlink="http://www.w3.org/1999/xlink" viewBox="0 0 30.08 26.07">
  <defs>
    <style>
      .cls-1 {
        clip-path: url(#clippath);
      }

      .cls-2 {
        clip-rule: evenodd;
      }

      .cls-2, .cls-3 {
        stroke-width: 0px;
      }

      .cls-2, .cls-3, .cls-4 {
        fill: #fff;
      }

      .cls-4 {
        fill-rule: evenodd;
      }
    </style>
    <clipPath id="clippath">
      <path class="cls-2" d="M30.08,8.16v1.35c-.02.07-.04.13-.05.2-.09.86-.31,1.69-.63,2.5-.75,1.91-1.91,3.57-3.26,5.1-3.06,3.46-6.7,6.2-10.61,8.61-.35.22-.71.2-1.05-.03-1.63-1.11-3.3-2.17-4.89-3.35-2.51-1.86-4.8-3.96-6.72-6.45-1.09-1.42-2.01-2.95-2.51-4.68-.17-.58-.25-1.18-.38-1.77v-1.41c.02-.09.04-.17.05-.26.19-1.81.81-3.44,1.95-4.87C3.42,1.33,5.24.23,7.52.05c2.74-.22,4.96.84,6.72,2.92.29.34.53.71.81,1.09.19-.28.37-.55.56-.8.2-.26.41-.53.65-.76C18.59.19,21.34-.61,24.46.48c2.77.96,4.44,3.04,5.26,5.82.18.6.24,1.24.36,1.87h0Z"/>
    </clipPath>
  </defs>
  <path class="cls-4" d="M30.08,8.16v1.35c-.02.07-.04.13-.05.2-.09.86-.31,1.69-.63,2.5-.75,1.91-1.91,3.57-3.26,5.1-3.06,3.46-6.7,6.2-10.61,8.61-.35.22-.71.2-1.05-.03-1.63-1.11-3.3-2.17-4.89-3.35-2.51-1.86-4.8-3.96-6.72-6.45-1.09-1.42-2.01-2.95-2.51-4.68-.17-.58-.25-1.18-.38-1.77v-1.41c.02-.09.04-.17.05-.26.19-1.81.81-3.44,1.95-4.87C3.42,1.33,5.24.23,7.52.05c2.74-.22,4.96.84,6.72,2.92.29.34.53.71.81,1.09.19-.28.37-.55.56-.8.2-.26.41-.53.65-.76C18.59.19,21.34-.61,24.46.48c2.77.96,4.44,3.04,5.26,5.82.18.6.24,1.24.36,1.87h0Z"/>
  <g class="cls-1">
    <path class="cls-3" d="M30.08,10.66h0v-5h0v5ZM27.32,7c.13.45.13.71.3,1.62l4.91-.93c-.06-.34-.2-1.35-.42-2.11l-4.8,1.42ZM23.64,2.84c1.87.65,3.05,2.01,3.68,4.16l4.8-1.41c-1-3.4-3.17-6.2-6.84-7.47l-1.64,4.72ZM18.02,4.28c.92-.91,1.81-1.42,2.67-1.64.84-.22,1.8-.2,2.95.2l1.64-4.72c-1.97-.69-3.95-.81-5.84-.32-1.88.48-3.52,1.53-4.94,2.92l3.52,3.55ZM17.59,4.79c.21-.27.32-.41.43-.51l-3.51-3.56c-.37.36-.67.75-.87,1.01l3.95,3.07ZM17.1,5.49c.27-.39.34-.51.49-.71l-3.96-3.06c-.24.31-.52.73-.63.89l4.09,2.87ZM12.34,4.59c.22.26.31.42.71.96l4.01-2.98c-.15-.21-.56-.8-.91-1.22l-3.81,3.24ZM7.71,2.55c1.85-.15,3.32.51,4.62,2.04l3.81-3.24c-2.22-2.61-5.2-4.08-8.82-3.79l.39,4.98ZM3.95,4.66c1.05-1.31,2.26-2,3.76-2.12l-.39-4.98C4.26-2.2,1.84-.7.05,1.54l3.9,3.12ZM2.54,8.22c.14-1.37.6-2.54,1.41-3.56L.05,1.54c-1.46,1.83-2.25,3.93-2.48,6.17l4.97.51ZM2.45,8.74s0,.01,0,0c0,0,.01-.05.02-.09.02-.08.05-.23.07-.42l-4.97-.52c0-.05.01-.1.02-.12,0-.01,0-.02,0-.03,0,0,0-.01,0,0,0,0,0,0,0,.01,0,0,0,0,0,.01,0,0,0,.01,0,.02,0,.01,0,.03-.01.05,0,.02,0,.04-.02.07l4.89,1.03ZM2.5,9.63h0v-.02h0v-.02h0v-.02h0v-.02h0v-.02h0v-.02h0v-.02h0v-.02h0v-.02h0v-.02h0v-.02h0v-.02h0v-.02h0v-.02h0v-.02h0v-.02h0v-.02h0v-.02h0v-.02h0v-.02h0v-.02h0v-.02h0v-.02h0v-.02h0v-.02h0v-.02h0v-.02h0v-.02h0v-.02h0v-.02h0v-.02h0v-.02h0v-.02h0v-.02h0v-.02h0v-.02h0v-.02h0v-.02h0v-.02h0v-.02h0v-.02h0v-.02h0v-.02h0v-.02h0v-.02h0v-.02h0v-.02h0v-.02h0v-.02h0v-.02h0v-.02h0v-.02h0v-.02h0v-.02h0v-.02h0v-.02h0v-.02h0v-.02h0v-.02h0v-.02h0v-.02h0v-.02h0v-.02h0v-.02h0v-.02h0v-.02h0v-.02h0v-.02h0v-.02h0v-.02h0v-.02h0v-.02h0v-.02h0v-.02h0v-.02h0v-.02h0v-.02h0v-.02h0v-.02h0v-.02h0v-.02h0v-.02h0v-.02h0v-.02h0v-.02h0s-5,0-5,0h0v.02h0v.02h0v.02h0v.02h0v.02h0v.02h0v.02h0v.02h0v.02h0v.02h0v.02h0v.02h0v.02h0v.02h0v.02h0v.02h0v.02h0v.02h0v.02h0v.02h0v.02h0v.02h0v.02h0v.02h0v.02h0v.02h0v.02h0v.02h0v.02h0v.02h0v.02h0v.02h0v.02h0v.02h0v.02h0v.02h0v.02h0v.02h0v.02h0v.02h0v.02h0v.02h0v.02h0v.02h0v.02h0v.02h0v.02h0v.02h0v.02h0v.02h0v.02h0v.02h0v.02h0v.02h0v.02h0v.02h0v.02h0v.02h0v.02h0v.02h0v.02h0v.02h0v.02h0v.02h0v.02h0v.02h0v.02h0v.02h0v.02h0v.02h0v.02h0v.02h0v.02h0v.02h0v.02h0v.02h0v.02h0v.02h0v.02h0v.02h0v.02h0v.02h0v.02h0v.02h0v.02h0s5,0,5,0ZM2.78,10.71c-.14-.47-.16-.79-.33-1.59l-4.89,1.03c.08.38.22,1.26.42,1.95l4.8-1.39ZM4.87,14.57c-.98-1.28-1.7-2.52-2.09-3.85l-4.8,1.39c.62,2.14,1.73,3.95,2.93,5.51l3.96-3.05ZM11.1,20.53c-2.37-1.76-4.49-3.71-6.23-5.97l-3.96,3.05c2.09,2.72,4.57,4.97,7.21,6.93l2.98-4.01ZM15.9,23.82c-1.72-1.17-3.27-2.15-4.8-3.29l-2.98,4.01c1.64,1.22,3.43,2.36,4.97,3.41l2.81-4.13ZM14.23,23.79c.18-.11.48-.23.87-.22.38.01.66.15.8.25l-2.81,4.14c.49.33,1.11.59,1.84.61.74.02,1.39-.2,1.92-.52l-2.62-4.26ZM24.28,15.65c-2.84,3.21-6.26,5.81-10.05,8.14l2.62,4.26c4.04-2.49,7.9-5.38,11.17-9.08l-3.75-3.31ZM27.08,11.3c-.61,1.55-1.57,2.96-2.8,4.35l3.75,3.31c1.47-1.66,2.82-3.57,3.71-5.84l-4.66-1.82ZM27.55,9.46c-.06.6-.22,1.2-.47,1.84l4.66,1.82c.38-.97.67-2.02.79-3.15l-4.97-.51ZM27.67,8.88s.02-.05.01-.04c0,.02,0,0,0,.02,0,.01,0,.03-.02.05-.02.08-.08.28-.11.53l4.97.53c-.01.1-.03.18-.04.24-.01.05-.02.09-.03.1,0,0,0,0,0,0,0,0,0,0,0,0,0,0,0-.01,0-.02,0-.02.02-.08.04-.14l-4.84-1.26ZM27.58,8.16v1.35h5v-1.35h-5ZM30.08,8.16l-2.46.46.38,2.04h2.07v-2.5ZM29.72,6.3l-2.4.71h0s2.4-.71,2.4-.71ZM24.46.48l.82-2.36h0s-.82,2.36-.82,2.36ZM16.26,2.5l1.75,1.78h0s-1.76-1.78-1.76-1.78ZM15.61,3.26l-1.97-1.53h0s1.98,1.53,1.98,1.53ZM15.05,4.06l-2.01,1.49,2.07,2.78,1.99-2.84-2.05-1.43ZM14.24,2.97l1.9-1.62h0s-1.9,1.62-1.9,1.62ZM7.52.05l.2,2.49h0L7.52.05ZM2,3.1L.05,1.54h0s1.95,1.56,1.95,1.56ZM.05,7.97l2.49.26h0S.05,7.97.05,7.97ZM0,8.22l-2.45-.52-.05.26v.26H0ZM0,9.63h-2.5v.26l.05.25,2.45-.51ZM.38,11.41l-2.4.69h0s2.4-.69,2.4-.69ZM2.89,16.09l1.98-1.52h0s-1.98,1.52-1.98,1.52ZM9.61,22.54l1.49-2.01h0s-1.49,2.01-1.49,2.01ZM14.49,25.89l-1.41,2.07h0s1.4-2.07,1.4-2.07ZM15.54,25.92l-1.31-2.13h0s1.31,2.13,1.31,2.13ZM26.15,17.31l1.87,1.66h0s-1.87-1.66-1.87-1.66ZM29.41,12.21l2.33.91h0s-2.33-.91-2.33-.91ZM30.03,9.71l-2.49-.26h0s2.49.26,2.49.26ZM30.08,9.52l2.42.63.08-.31v-.32h-2.5ZM30.08,8.16h2.5v-2.5h-2.5v2.5Z"/>
  </g>
</svg>