<?xml version="1.0" encoding="UTF-8"?>
<svg id="Layer_1" data-name="Layer 1" xmlns="http://www.w3.org/2000/svg" xmlns:xlink="http://www.w3.org/1999/xlink" viewBox="0 0 24 24">
  <defs>
    <style>
      .cls-1 {
        clip-path: url(#clippath);
      }

      .cls-2 {
        clip-rule: evenodd;
      }

      .cls-2, .cls-3, .cls-4 {
        stroke-width: 0px;
      }

      .cls-2, .cls-3, .cls-4, .cls-5 {
        fill: #fff;
      }

      .cls-3 {
        opacity: .75;
      }

      .cls-5 {
        fill-rule: evenodd;
      }
    </style>
    <clipPath id="clippath">
      <path class="cls-2" d="M7.23,6h9.72c.51,0,.71-.05.96.2s.2.5.2,1.01v10.56c0,.15.01.3,0,.45-.01.11-.04.23-.1.34-.14.26-.47.38-.8.29-.17-.05-.34-.13-.48-.22-1.36-.92-2.71-1.84-4.06-2.77-.36-.25-.78-.25-1.14,0-1.01.69-2.02,1.37-3.02,2.06-.39.26-.76.53-1.16.78-.57.35-1.2.16-1.32-.39-.01-.06-.01-.12-.01-.18,0-3.67,0-7.34,0-11.01,0-.52-.05-.67.2-.92.25-.25.5-.2,1.02-.2Z"/>
    </clipPath>
  </defs>
  <circle class="cls-3" cx="12" cy="12" r="12"/>
  <g>
    <path class="cls-5" d="M7.23,6h9.72c.51,0,.71-.05.96.2s.2.5.2,1.01v10.56c0,.15.01.3,0,.45-.01.11-.04.23-.1.34-.14.26-.47.38-.8.29-.17-.05-.34-.13-.48-.22-1.36-.92-2.71-1.84-4.06-2.77-.36-.25-.78-.25-1.14,0-1.01.69-2.02,1.37-3.02,2.06-.39.26-.76.53-1.16.78-.57.35-1.2.16-1.32-.39-.01-.06-.01-.12-.01-.18,0-3.67,0-7.34,0-11.01,0-.52-.05-.67.2-.92.25-.25.5-.2,1.02-.2Z"/>
    <g class="cls-1">
      <path class="cls-4" d="M7.08,7.09s-.09.08-.17.11c-.08.04-.14.04-.15.04,0,0,0,0,.02,0,.02,0,.05,0,.09,0,.04,0,.09,0,.15,0,.06,0,.13,0,.2,0v-2.5c-.14,0-.19,0-.33,0-.11,0-.26,0-.42.02-.39.05-.79.19-1.14.54l1.75,1.78ZM7.25,7.12c0-.08,0-.14,0-.2,0-.06,0-.1,0-.14,0-.04,0-.06,0-.07,0,0,0,0,0,.02,0,.02,0,.06-.02.1-.01.05-.03.09-.06.13-.05.09-.09.13-.09.12l-1.75-1.78c-.12.12-.25.27-.36.47-.11.21-.17.41-.2.6-.02.17-.02.32-.02.42,0,.14,0,.18,0,.32h2.5ZM7.26,18.13c0-3.67,0-7.34,0-11.01h-2.5c0,3.67,0,7.34,0,11.01h2.5ZM7.24,18.03c.01.05.01.09.02.11,0,.01,0,.02,0,0h-2.5c0,.05,0,.24.04.45l2.44-.54ZM6.68,17.64s.04-.04.19,0c.08.02.16.07.24.15.08.08.11.17.13.24l-2.44.55c.16.73.69,1.26,1.35,1.46.64.19,1.31.05,1.85-.28l-1.32-2.12ZM7.8,16.88c-.42.29-.75.52-1.12.76l1.32,2.12c.43-.27.85-.57,1.21-.81l-1.41-2.07ZM10.82,14.82c-1,.68-2.02,1.38-3.02,2.06l1.41,2.07c1.01-.69,2.01-1.37,3.02-2.06l-1.41-2.07ZM13.37,14.83c-.78-.53-1.76-.54-2.54,0l1.41,2.07s-.06.03-.14.03c-.08,0-.13-.03-.13-.03l1.41-2.07ZM17.42,17.59c-1.36-.92-2.7-1.84-4.06-2.76l-1.41,2.07c1.35.92,2.7,1.85,4.06,2.77l1.4-2.07ZM17.53,17.64s-.03,0-.05-.02c-.02-.01-.04-.02-.05-.03l-1.4,2.07c.25.17.54.31.86.39l.65-2.42ZM16.91,17.95c.18-.33.49-.34.61-.31l-.64,2.42c.78.21,1.75-.05,2.22-.9l-2.19-1.21ZM16.87,18.07s0,0,0-.03c0-.02.02-.05.04-.1l2.19,1.21c.16-.29.22-.58.25-.8l-2.48-.29ZM16.87,17.76c0,.05,0,.1,0,.14,0,.04,0,.07,0,.1,0,.03,0,.04,0,.06,0,.01,0,.02,0,.02l2.48.28c.03-.24.01-.56.01-.59h-2.5ZM16.87,7.21v10.56h2.5V7.21h-2.5ZM17.04,7.09s-.08-.09-.12-.17c-.04-.08-.05-.15-.05-.16,0,0,0,0,0,.02,0,.02,0,.05,0,.09,0,.04,0,.09,0,.15,0,.06,0,.13,0,.2h2.5c0-.13,0-.18,0-.33,0-.11,0-.26-.02-.42-.05-.4-.21-.8-.56-1.15l-1.75,1.78ZM16.95,7.25c.07,0,.14,0,.2,0,.06,0,.1,0,.14,0,.04,0,.06,0,.08,0,.01,0,.01,0,0,0-.01,0-.04,0-.07-.02-.04,0-.07-.02-.11-.04-.08-.04-.13-.08-.14-.1l1.75-1.78c-.14-.14-.31-.27-.51-.37-.21-.1-.41-.15-.59-.17-.16-.02-.31-.02-.42-.02-.14,0-.19,0-.32,0v2.5ZM7.23,7.25h9.72v-2.5H7.23v2.5ZM6.01,18.13h1.25s-1.25,0-1.25,0ZM6.02,18.31l-1.22.27h0s1.22-.27,1.22-.27ZM7.34,18.7l-.66-1.06h0s.66,1.06.66,1.06ZM8.5,17.91l-.7-1.03h0s.7,1.03.7,1.03ZM11.53,15.86l.7,1.03h0s-.7-1.03-.7-1.03ZM12.66,15.86l.7-1.03h0s-.7,1.03-.7,1.03ZM16.72,18.63l-.7,1.04h0s.7-1.04.7-1.04ZM17.21,18.85l-.32,1.21h0s.32-1.21.32-1.21ZM18.01,18.55l-1.09-.61h0s1.09.61,1.09.61ZM18.11,18.22l1.24.14h0s-1.24-.14-1.24-.14Z"/>
    </g>
  </g>
</svg>